HIERARCHY
ROOT Hips
{
  OFFSET -131.282 90.5351 -41.2874
  CHANNELS 6 Xposition Yposition Zposition Zrotation Xrotation Yrotation
  JOINT RightUpLeg
  {
    OFFSET -8.9458 -8.66707 0.101652
    CHANNELS 3 Zrotation Xrotation Yrotation
    JOINT RightLeg
    {
      OFFSET 0 -44.4227 1.3727
      CHANNELS 3 Zrotation Xrotation Yrotation
      JOINT RightFoot
      {
        OFFSET 0.253549 -42.0924 -1.46059
        CHANNELS 3 Zrotation Xrotation Yrotation
        JOINT RightToes
        {
          OFFSET 0.04 -4.41509 8.4991
          CHANNELS 3 Zrotation Xrotation Yrotation
          End Site
          {
            OFFSET -0.08 -0.137448 9.77979
          }
        }
      }
    }
  }
  JOINT Spine
  {
    OFFSET 0 11.8905 0
    CHANNELS 3 Zrotation Xrotation Yrotation
    JOINT Spine1
    {
      OFFSET 0 25.6574 0.127663
      CHANNELS 3 Zrotation Xrotation Yrotation
      JOINT HEad
      {
        OFFSET 0 8.73416 0.011341
        CHANNELS 3 Zrotation Xrotation Yrotation
        End Site
        {
          OFFSET -0.29 12.7742 2.51395
        }
      }
      JOINT LeftShoulder1
      {
        OFFSET 8.99 -0.362252 -0.22
        CHANNELS 3 Zrotation Xrotation Yrotation
        JOINT LeftArm
        {
          OFFSET 10.2827 -0.00338 0.322123
          CHANNELS 3 Zrotation Xrotation Yrotation
          JOINT LeftForeArm
          {
            OFFSET 32.7669 0.099144 -1.42434
            CHANNELS 3 Zrotation Xrotation Yrotation
            JOINT LeftHand
            {
              OFFSET 27.5643 0.085362 1.02216
              CHANNELS 3 Zrotation Xrotation Yrotation
              End Site
              {
                OFFSET 16.7443 -0.6 1.50291
              }
            }
          }
        }
      }
      JOINT RightShoulder
      {
        OFFSET -8.99 -0.362252 -0.22
        CHANNELS 3 Zrotation Xrotation Yrotation
        JOINT RightArm
        {
          OFFSET -10.2827 -0.00338 0.322123
          CHANNELS 3 Zrotation Xrotation Yrotation
          JOINT RightForeArm
          {
            OFFSET -32.8971 0.099144 -1.42434
            CHANNELS 3 Zrotation Xrotation Yrotation
            JOINT RightHand
            {
              OFFSET -27.4921 0.085362 1.02216
              CHANNELS 3 Zrotation Xrotation Yrotation
              End Site
              {
                OFFSET -16.6312 -0.6 1.50291
              }
            }
          }
        }
      }
    }
  }
  JOINT LeftUpLeg
  {
    OFFSET 8.9458 -8.66707 0.101652
    CHANNELS 3 Zrotation Xrotation Yrotation
    JOINT LeftLeg
    {
      OFFSET 0 -44.4227 1.3727
      CHANNELS 3 Zrotation Xrotation Yrotation
      JOINT LeftFoot
      {
        OFFSET -0.253549 -42.0924 -1.46059
        CHANNELS 3 Zrotation Xrotation Yrotation
        JOINT LeftToes
        {
          OFFSET -0.04 -4.41509 8.4991
          CHANNELS 3 Zrotation Xrotation Yrotation
          End Site
          {
            OFFSET 0.08 -0.047448 9.77979
          }
        }
      }
    }
  }
}
MOTION
Frames:	12
Frame Time:	0.0166667
-93.4899 89.8824 -25.7418 -7.6555 4.9012 65.072 -15.3069 -1.6333 1.89092 1.66299 46.8735 -3.23119 9.219 10.285 -1.49511 -17.2757 -27.514 -5.19535 -4.90855 3.61759 6.412 -10.2063 6.57783 13.3185 7.5236 -7.97908 -19.4155 -7.95139e-016 -1.49089e-015 -7.95139e-016 -69.6618 -25.4626 -30.7661 1.11828 31.1461 -116.131 29.0991 2.27267 -25.3175 6.45354 1.94337 16.0813 97.9839 -54.9801 76.0116 -12.9373 59.4664 128.02 -21.6126 17.9625 -47.2351 -1.94569 -32.4123 -5.36048 20.0184 4.29988 -65.5536 -17.1076 -0.216409 1.10559 13.1938 -18.8175 -3.79075 
-93.4293 89.8332 -25.7642 -6.58398 3.94852 63.4048 -16.5952 -3.55347 1.51003 0.780204 48.5074 -1.94458 10.9034 11.7403 -1.88778 -17.7023 -28.2618 -4.75393 -4.50758 3.97762 5.87122 -9.07952 7.29484 12.3364 6.74052 -8.40003 -17.5992 1.59028e-015 -5.36719e-015 1.59028e-015 -70.1579 -26.9983 -32.0857 -0.042905 32.6736 -115.02 28.8887 2.09188 -26.2072 11.7718 2.99075 17.3948 85.5961 -53.5291 61.4501 -15.2259 53.4324 135.676 -19.8361 17.5604 -48.7701 -1.07711 -32.0273 -4.82304 20.9983 7.13589 -65.4048 -16.2171 -1.91106 0.816291 12.7076 -18.0428 -3.54559 
-93.3853 89.6833 -25.7369 -5.41484 2.9036 61.8614 -17.8307 -5.16876 1.35444 1.173 49.8298 -1.90694 12.4761 14.4315 -2.4297 -19.2756 -30.5738 -4.5903 -4.07438 4.37193 5.29875 -7.81518 8.08187 11.2539 5.82708 -8.85719 -15.5625 -3.97569e-016 2.5842e-015 -0 -70.5994 -28.5613 -32.9296 -1.71969 34.1454 -113.646 28.2522 1.92252 -27.5442 16.6837 4.02945 18.3362 74.4498 -50.4069 48.5553 -16.0292 46.836 140.907 -17.5048 16.8956 -50.4066 -0.336595 -31.6095 -4.29273 22.1106 10.0887 -65.3508 -15.4968 -3.41574 0.584113 12.5226 -17.8038 -3.60329 
-93.3601 89.4204 -25.6551 -4.13506 1.79308 60.3614 -19.0619 -6.42828 1.3564 2.85102 50.9809 -3.46659 13.7286 18.2101 -3.10098 -21.9924 -34.2343 -5.02619 -3.64136 4.76749 4.70992 -6.50597 8.8688 10.1119 4.85913 -9.10756 -13.2295 -9.93923e-016 6.21202e-015 -0 -70.9135 -30.1729 -33.3383 -3.6301 35.423 -112.258 27.365 1.80873 -29.0274 20.9322 4.9695 18.9841 65.7503 -45.9901 38.4265 -16.0764 39.9645 144.529 -14.6539 15.9463 -52.1187 0.333481 -31.1539 -3.79381 23.2999 13.1819 -65.2709 -14.994 -4.67082 0.407434 12.6903 -18.1692 -3.95862 
-93.3568 89.0472 -25.5136 -2.75271 0.652358 58.7922 -20.2807 -7.32123 1.36604 5.48318 52.0659 -6.62656 14.3929 22.4351 -3.75888 -25.4405 -38.2886 -6.42729 -3.23436 5.1249 4.14614 -5.26007 9.57836 9.00413 3.91548 -8.96301 -10.6278 5.96354e-016 -5.96354e-016 3.18055e-015 -71.0368 -31.8341 -33.4019 -5.52593 36.4468 -111.048 26.3716 1.76696 -30.4538 24.2581 5.72903 19.4093 59.8594 -40.7749 31.32 -15.8691 33.128 147.062 -11.4464 14.7483 -53.8751 1.02903 -30.621 -3.3104 24.4545 16.364 -65.0323 -14.7598 -5.63803 0.281446 13.2294 -19.1648 -4.56895 
-93.3852 88.5872 -25.3056 -1.30849 -0.477287 57.0476 -21.422 -7.87132 1.22201 8.55134 53.1514 -11.0501 14.1066 26.1121 -4.11832 -28.8895 -41.4326 -9.0257 -2.86897 5.40504 3.66325 -4.1753 10.1414 8.04968 3.0636 -8.31678 -7.86747 -9.93923e-016 -4.77083e-015 -3.18055e-015 -70.9411 -33.5159 -33.2344 -7.22173 37.2177 -110.134 25.3827 1.78849 -31.7143 26.4944 6.2502 19.6604 56.5528 -35.2958 26.9801 -15.7083 26.7445 148.85 -8.14885 13.3939 -55.6099 1.86294 -29.956 -2.7947 25.4131 19.5099 -64.5211 -14.8093 -6.30924 0.198794 14.1091 -20.7359 -5.33593 
-93.468 88.0846 -25.0234 0.122856 -1.54366 55.0624 -22.3887 -8.12496 0.834193 11.5387 54.243 -16.155 12.6104 28.1641 -3.89034 -31.3588 -42.5542 -12.6312 -2.55967 5.57588 3.31609 -3.31691 10.5044 7.35791 2.34374 -7.15283 -5.10204 3.97569e-016 2.38542e-015 -0 -70.6453 -35.1556 -32.9432 -8.58697 37.7619 -109.579 24.485 1.85039 -32.759 27.6153 6.51191 19.7683 55.2902 -30.106 24.9433 -15.7298 21.3398 150.13 -5.09282 12.0319 -57.2147 2.92562 -29.1129 -2.19798 25.9968 22.4421 -63.6646 -15.091 -6.71816 0.150201 15.2295 -22.6932 -6.09497 
-93.6398 87.6026 -24.66 1.44302 -2.47746 52.8357 -23.0855 -8.12524 0.238522 14.0459 55.2334 -21.2582 10.1228 27.782 -3.07477 -31.8508 -41.1752 -16.5183 -2.32629 5.61717 3.14228 -2.70684 10.63 6.99588 1.76213 -5.54067 -2.4848 1.19271e-015 -7.95139e-016 -0 -70.2077 -36.6631 -32.6011 -9.52718 38.101 -109.42 23.7511 1.92499 -33.5618 27.7247 6.53174 19.7594 55.4554 -25.727 24.7151 -15.9553 17.4312 151.07 -2.61106 10.8479 -58.5554 4.24241 -28.074 -1.51342 26.0569 24.9549 -62.4333 -15.494 -6.92663 0.126312 16.4224 -24.6988 -6.64051 
-93.9358 87.2216 -24.2138 2.5488 -3.19743 50.4419 -23.4361 -7.88665 -0.410036 15.8001 55.8862 -25.7138 7.43749 24.7549 -2.061 -29.9587 -37.655 -19.775 -2.17554 5.52034 3.14661 -2.32576 10.4955 6.96779 1.29508 -3.61744 -0.133692 -3.97569e-016 2.78299e-015 -6.36111e-015 -69.7022 -37.9346 -32.2274 -9.97896 38.2349 -109.681 23.2379 1.98759 -34.1045 27.0189 6.35755 19.6614 56.5267 -22.527 25.8177 -16.3498 15.3223 151.782 -0.946347 10.0116 -59.5024 5.75448 -26.8548 -0.802827 25.5149 26.8307 -60.8246 -15.8906 -6.96948 0.123143 17.4906 -26.346 -6.79117 
-94.379 87.0305 -23.6907 3.35349 -3.62899 48.0262 -23.3889 -7.39555 -0.905735 16.6336 55.9 -29.0194 5.45882 19.611 -1.28826 -26.3483 -33.0561 -21.8319 -2.07816 5.28585 3.2938 -2.12465 10.0936 7.21293 0.900839 -1.5604 1.88569 0 1.98785e-016 -0 -69.1878 -38.8712 -31.7846 -9.91963 38.1404 -110.382 22.9771 2.02231 -34.3756 25.7513 6.05417 19.5025 58.1279 -20.5624 27.763 -16.8642 14.9027 152.325 -0.152969 9.60008 -59.9746 7.33719 -25.5061 -0.186463 24.3888 27.8641 -58.8548 -16.1904 -6.78848 0.149793 18.2693 -27.3129 -6.4588 
-94.9752 87.1048 -23.1017 3.8071 -3.72517 45.7803 -22.9246 -6.64253 -1.09331 16.4943 55.0273 -30.874 4.66437 13.4309 -0.889147 -22.3423 -28.6086 -22.642 -1.98129 4.92418 3.51898 -2.04238 9.43943 7.62185 0.535686 0.444124 3.55719 -1.98785e-015 7.95139e-016 -6.36111e-015 -68.6944 -39.3971 -31.1957 -9.37769 37.7809 -111.514 22.9672 2.02489 -34.3802 24.1966 5.68941 19.3075 59.9615 -19.5365 30.0347 -17.4408 15.6313 152.715 -0.0543173 9.54859 -59.9931 8.84345 -24.1151 0.2022 22.8076 27.9015 -56.5722 -16.3756 -6.20747 0.231759 18.6813 -27.4966 -5.68115 
-95.7183 87.4807 -22.4616 3.90592 -3.48388 43.9035 -22.0685 -5.66708 -0.951597 15.4748 53.199 -31.2154 5.02461 7.40151 -0.732103 -18.9773 -25.0897 -22.5154 -1.84455 4.45988 3.75162 -2.02124 8.57714 8.0647 0.169028 2.22892 4.89724 -1.19271e-015 1.39149e-015 9.54166e-015 -68.2305 -39.4692 -30.3787 -8.43201 37.1222 -113.029 23.1736 2.00189 -34.1451 22.613 5.32259 19.0954 61.7316 -18.9899 32.1301 -17.991 16.7994 152.953 -0.323285 9.68997 -59.6926 10.1525 -22.7969 0.2785 20.996 26.8869 -54.0725 -16.5112 -4.97432 0.405596 18.7537 -27.0429 -4.62252 
